<?xml version="1.0" encoding="utf-8"?>
<!-- Generator: Adobe Illustrator 28.0.0, SVG Export Plug-In . SVG Version: 6.00 Build 0)  -->
<svg version="1.1" xmlns="http://www.w3.org/2000/svg" xmlns:xlink="http://www.w3.org/1999/xlink" x="0px" y="0px"
	 viewBox="0 0 1080 1080" style="enable-background:new 0 0 1080 1080;" xml:space="preserve">
<style type="text/css">
	.st0{fill:#73C69C;}
	.st1{fill:#231F20;}
</style>
<g id="Green">
	<rect x="0" y="0" class="st0" width="1080" height="1080"/>
</g>
<g id="Face">
	<g>
		<path class="st1" d="M704.3,763.78c-60.11,0-118.08-27.91-163.24-78.58c-8-8.96-7.21-22.72,1.77-30.71
			c8.97-8,22.71-7.21,30.71,1.77c36.79,41.28,83.22,64.01,130.76,64.01c47.54,0,93.98-22.73,130.77-64.01
			c8-8.97,21.74-9.76,30.71-1.77c8.97,7.99,9.76,21.74,1.77,30.71C822.39,735.87,764.42,763.78,704.3,763.78z"/>
	</g>
	<g>
		<path class="st1" d="M543.4,369.01c-30.5,3.68-55.86,34.31-60.41,73.22c-1.21,10.38-0.97,20.45,0.49,29.97
			c1.36,8.91,8.56,14.23,15.3,11.49l105.59-43.03c6.71-2.74,10.24-12.39,7.35-20.65C600.3,387.35,573.67,365.36,543.4,369.01z"/>
		<path class="st1" d="M865.21,369.01c30.5,3.68,55.86,34.31,60.41,73.22c1.21,10.38,0.97,20.45-0.49,29.97
			c-1.36,8.91-8.56,14.23-15.3,11.49l-105.59-43.03c-6.71-2.74-10.24-12.39-7.35-20.65C808.31,387.35,834.94,365.36,865.21,369.01z"
			/>
	</g>
</g>
</svg>
