<?xml version="1.0" encoding="utf-8"?>
<!-- Generator: Adobe Illustrator 28.0.0, SVG Export Plug-In . SVG Version: 6.00 Build 0)  -->
<svg version="1.1" id="Face" xmlns="http://www.w3.org/2000/svg" xmlns:xlink="http://www.w3.org/1999/xlink" x="0px" y="0px"
	 viewBox="0 0 1080 1080" style="enable-background:new 0 0 1080 1080;" xml:space="preserve">
<style type="text/css">
	.st0{fill:#F05975;}
</style>
<g>
	<path class="st0" d="M851.32,763.78c-5.99,0-11.95-2.46-16.25-7.28c-36.78-41.28-83.22-64.01-130.76-64.01
		c-47.54,0-93.98,22.73-130.76,64.01c-8,8.96-21.74,9.76-30.71,1.77c-8.97-7.99-9.76-21.74-1.77-30.71
		c45.15-50.67,103.12-78.58,163.24-78.58c60.12,0,118.1,27.91,163.25,78.58c7.99,8.96,7.2,22.72-1.77,30.71
		C861.63,761.96,856.47,763.78,851.32,763.78z"/>
</g>
<g>
	<path class="st0" d="M878.67,484.02c-30.5-3.68-55.86-34.31-60.41-73.22c-1.21-10.38-0.97-20.45,0.49-29.97
		c1.36-8.91,8.56-14.23,15.3-11.49l105.59,43.03c6.71,2.74,10.24,12.39,7.35,20.65C935.58,465.69,908.95,487.67,878.67,484.02z"/>
	<path class="st0" d="M529.93,484.02c30.5-3.68,55.86-34.31,60.41-73.22c1.21-10.38,0.97-20.45-0.49-29.97
		c-1.36-8.91-8.56-14.23-15.3-11.49l-105.59,43.03c-6.71,2.74-10.24,12.39-7.35,20.65C473.03,465.69,499.66,487.67,529.93,484.02z"
		/>
</g>
</svg>
