<?xml version="1.0" encoding="utf-8"?>
<!-- Generator: Adobe Illustrator 28.0.0, SVG Export Plug-In . SVG Version: 6.00 Build 0)  -->
<svg version="1.1" xmlns="http://www.w3.org/2000/svg" xmlns:xlink="http://www.w3.org/1999/xlink" x="0px" y="0px"
	 viewBox="0 0 1080 1080" style="enable-background:new 0 0 1080 1080;" xml:space="preserve">
<style type="text/css">
	.st0{fill:#F79632;}
	.st1{fill:#231F20;}
</style>
<g id="Orange">
	<rect x="0" y="0" class="st0" width="1080" height="1080"/>
</g>
<g id="Face">
	<ellipse class="st1" cx="540.96" cy="425.92" rx="43.45" ry="73.86"/>
	<ellipse class="st1" cx="868.44" cy="425.92" rx="43.45" ry="73.86"/>
	<g>
		<path class="st1" d="M487.48,744.53c-8.82,0-17.12-5.41-20.37-14.17c-4.17-11.25,1.56-23.75,12.8-27.93
			c62.89-23.34,142.72-36.2,224.79-36.2s161.9,12.86,224.78,36.2c11.25,4.17,16.98,16.67,12.8,27.93
			c-4.17,11.25-16.66,16.99-27.93,12.8c-58.16-21.6-132.62-33.48-209.66-33.48s-151.5,11.89-209.67,33.48
			C492.54,744.09,489.98,744.53,487.48,744.53z"/>
	</g>
</g>
</svg>
