<?xml version="1.0" encoding="utf-8"?>
<!-- Generator: Adobe Illustrator 28.0.0, SVG Export Plug-In . SVG Version: 6.00 Build 0)  -->
<svg version="1.1" xmlns="http://www.w3.org/2000/svg" xmlns:xlink="http://www.w3.org/1999/xlink" x="0px" y="0px"
	 viewBox="0 0 1080 1080" style="enable-background:new 0 0 1080 1080;" xml:space="preserve">
<style type="text/css">
	.st0{fill:#FECE1B;}
	.st1{fill:#231F20;}
</style>
<g id="Yellow">
	<rect x="0" y="0" class="st0" width="1080" height="1080"/>
</g>
<g id="Face">
	<ellipse class="st1" cx="540.34" cy="426.52" rx="43.51" ry="73.96"/>
	<ellipse class="st1" cx="868.27" cy="426.52" rx="43.51" ry="73.96"/>
	<g>
		<path class="st1" d="M704.3,745.58c-82.16,0-162.11-12.87-225.11-36.25c-11.26-4.18-17-16.7-12.82-27.96
			c4.18-11.26,16.69-17,27.96-12.82c58.28,21.63,132.84,33.53,209.96,33.53c77.13,0,151.7-11.9,209.96-33.53
			c11.28-4.18,23.78,1.56,27.97,12.82c4.18,11.27-1.56,23.78-12.82,27.96C866.41,732.7,786.47,745.58,704.3,745.58z"/>
	</g>
</g>
</svg>
