<?xml version="1.0" encoding="utf-8"?>
<!-- Generator: Adobe Illustrator 28.0.0, SVG Export Plug-In . SVG Version: 6.00 Build 0)  -->
<svg version="1.1" xmlns="http://www.w3.org/2000/svg" xmlns:xlink="http://www.w3.org/1999/xlink" x="0px" y="0px"
	 viewBox="0 0 1080 1080" style="enable-background:new 0 0 1080 1080;" xml:space="preserve">
<style type="text/css">
	.st0{fill:#24BFC7;}
	.st1{fill:#FFFFFF;}
</style>
<g id="Background">
	<rect class="st0" width="1080" height="1080"/>
</g>
<g id="Exclamation">
	<g>
		<path class="st1" d="M492.01,622.36L471.31,235H608.7l-20.68,387.36H492.01z M540.01,845c-22.08,0-40.15-7.45-54.22-22.35
			c-14.06-14.89-21.11-32.82-21.11-53.78c0-22.07,7.05-40.41,21.11-55.05c14.07-14.62,32.14-21.93,54.22-21.93
			c22.05,0,40.13,7.31,54.21,21.93c14.07,14.64,21.1,32.98,21.1,55.05c0,20.97-7.03,38.89-21.1,53.78
			C580.15,837.55,562.06,845,540.01,845"/>
	</g>
</g>
</svg>
