<?xml version="1.0" encoding="utf-8"?>
<!-- Generator: Adobe Illustrator 28.0.0, SVG Export Plug-In . SVG Version: 6.00 Build 0)  -->
<svg version="1.1" xmlns="http://www.w3.org/2000/svg" xmlns:xlink="http://www.w3.org/1999/xlink" x="0px" y="0px"
	 viewBox="0 0 1080 1080" style="enable-background:new 0 0 1080 1080;" xml:space="preserve">
<style type="text/css">
	.st0{fill:#F79633;}
	.st1{fill:#FFFFFF;}
</style>
<g id="Background">
	<rect x="-1.39" class="st0" width="1081.53" height="1081.53"/>
</g>
<g id="Question">
	<g>
		<path class="st1" d="M553.4,845c-21.92,0-39.86-7.4-53.83-22.19c-13.96-14.79-20.95-32.58-20.95-53.39
			c0-21.91,7-40.12,20.95-54.65c13.97-14.51,31.9-21.77,53.83-21.77c21.89,0,39.84,7.26,53.81,21.77
			c13.97,14.53,20.95,32.74,20.95,54.65c0,20.81-6.98,38.61-20.95,53.39C593.24,837.6,575.28,845,553.4,845"/>
		<path class="st1" d="M699.03,317.39c-15.32-25.42-36.48-45.5-63.53-60.25C608.45,242.38,576.88,235,540.83,235
			c-43.17,0-80.34,9.98-111.48,29.93c-31.15,19.94-54.92,46.03-71.32,78.27l81.16,76.23c10.37-20.22,23.89-36.34,40.57-48.37
			c16.66-12.01,34.83-18.02,54.5-18.02c13.66,0,25.27,2.45,34.84,7.38c9.55,4.91,17.08,11.75,22.54,20.48
			c5.46,8.75,8.2,19.41,8.2,31.97c0,12.03-2.75,22.54-8.2,31.55c-5.46,9.02-13.4,15.99-23.76,20.9
			c-10.39,4.92-22.41,7.38-36.08,7.38h-35.23l6.55,156.56h99.18l5.16-66.04c14.94-5.41,28.94-12.36,41.98-20.84
			c22.67-14.76,40.42-33.47,53.26-56.14c12.85-22.67,19.27-50.41,19.27-83.2C721.97,371.35,714.31,342.79,699.03,317.39z"/>
	</g>
</g>
</svg>
